# xmcd
#
# Track frame offsets:
#	180
#	13702
#	26321
#	34490
#	45831
#	57733
#	69803
#	82676
#	96047
#	108724
#	121315
#	134218
#	145704
#	158691
#	169923
#	180445
#
# Disc length: 2568 seconds
#
# Revision: 0
# Processed by: cddbd v1.5.2PL0 Copyright (c) Steve Scherf et al.
# Submitted via: dBpowerAMP V4.0
#
DISCID=cd0a0610
DTITLE=Various Artist - Guns and Guitars [CD2)
DYEAR=1900
DGENRE=Country
TTITLE0=Jimmie Rodgers - My little old home
TTITLE1=Dave and Howard - My bones gonna rise again
TTITLE2=Gene Autrey - Guns and guitars
TTITLE3=The Monroe Brothers - Sinner you better get ready
TTITLE4=The Shelton Brothers - Aura Lee
TTITLE5=Boots Woodall - Rattlesnakin' daddy
TTITLE6=Ocie Stockard - Nobody cares
TTITLE7=The Armstrong twins - mandolin boogie
TTITLE8=Jimmie Widener - I hear you knockin'
TTITLE9=Elmer Christian - A rainy sunday night
TTITLE10=Red Woodward - Cowboy Boogie
TTITLE11=Link Davis - Texas swing
TTITLE12=Curley Williams - Georgia Boogie
TTITLE13=Johnny Tyler - Two can play your game
TTITLE14=Art Gunn - Boogie woogie blues
TTITLE15=Floyd Tillman - Slippin' around
EXTD=
EXTT0=
EXTT1=
EXTT2=
EXTT3=
EXTT4=
EXTT5=
EXTT6=
EXTT7=
EXTT8=
EXTT9=
EXTT10=
EXTT11=
EXTT12=
EXTT13=
EXTT14=
EXTT15=
PLAYORDER=
